<svg t="1699979519525" class="icon" viewBox="0 0 1477 1024" version="1.1" xmlns="http://www.w3.org/2000/svg" p-id="1862" width="200" height="200"><path d="M1248.910769 649.329231h-1156.923077c-2.461538 0-2.461538-2.461538-2.461538-2.461539-2.461538-2.461538 0-2.461538 2.461538-2.461538h1156.923077c2.461538 0 2.461538 0 4.923077 2.461538 0 0-2.461538 2.461538-4.923077 2.461539z m0 103.384615h-1156.923077c-2.461538 0-2.461538-2.461538-2.461538-2.461538 0-2.461538 0-2.461538 2.461538-2.461539h1156.923077c2.461538 0 2.461538 0 4.923077 2.461539-2.461538 0-4.923077 0-4.923077 2.461538z m0 100.923077h-1156.923077c-2.461538 0-2.461538-2.461538-2.461538-2.461538l2.461538-2.461539h1156.923077c2.461538 0 4.923077 2.461538 4.923077 2.461539s-2.461538 2.461538-4.923077 2.461538z m0-256h-1156.923077c-2.461538 0-2.461538-2.461538-2.461538-2.461538s0-2.461538 2.461538-2.461539h1156.923077c0-2.461538 2.461538-2.461538 2.461539 0 2.461538 0 2.461538 2.461538 0 2.461539s0 2.461538-2.461539 2.461538z m0 103.384615h-1156.923077c-2.461538 0-2.461538-2.461538-2.461538-2.461538 0-2.461538 0-2.461538 2.461538-2.461538h1156.923077c2.461538 0 4.923077 0 4.923077 2.461538s-2.461538 2.461538-4.923077 2.461538z m0 103.384616h-1156.923077c-2.461538 0-2.461538-2.461538-2.461538-2.461539l2.461538-2.461538h1156.923077c2.461538 0 4.923077 2.461538 4.923077 2.461538s-2.461538 2.461538-4.923077 2.461539z m0 103.384615h-1156.923077c-2.461538 0-2.461538-2.461538-2.461538-2.461538l2.461538-2.461539h1156.923077c2.461538 0 4.923077 2.461538 4.923077 2.461539s-2.461538 2.461538-4.923077 2.461538z" fill="#999999" p-id="1863"></path><path d="M87.064615 452.406154l27.076923 29.538461-27.076923-7.384615-27.076923 9.846154 27.076923-32z" fill="#2DABE6" p-id="1864"></path><path d="M87.064615 452.406154l27.076923 29.538461-27.076923-7.384615-27.076923 9.846154 27.076923-32z m1390.769231 502.153846l-59.076923 14.769231 12.307692-14.769231-12.307692-14.769231 59.076923 14.769231z" fill="#2DABE6" p-id="1865"></path><path d="M1477.833846 954.56l-59.076923 14.769231 12.307692-14.769231-12.307692-14.769231 59.076923 14.769231z" fill="#2DABE6" p-id="1866"></path><path d="M91.987692 907.790769c-4.923077-2.461538-4.923077-2.461538-4.923077-4.923077 9.846154-7.384615 221.538462-164.923077 448-164.923077 120.615385 0 174.769231-49.230769 224-93.538461 39.384615-34.461538 76.307692-68.923077 145.23077-66.461539 76.307692 4.923077 155.076923 22.153846 226.461538 49.23077 39.384615 14.769231 81.230769 27.076923 123.076923 29.538461 2.461538 0 7.384615 2.461538 7.384616 4.923077s-2.461538 4.923077-7.384616 4.923077c-44.307692-4.923077-88.615385-14.769231-130.461538-32-71.384615-27.076923-145.230769-44.307692-219.076923-49.230769-59.076923-2.461538-93.538462 29.538462-132.923077 64-61.538462 64-147.692308 98.461538-236.307693 96-219.076923 0-435.692308 157.538462-438.153846 162.461538h-4.923077z" fill="#3AB481" p-id="1867"></path><path d="M91.987692 907.790769c-2.461538 0-2.461538 0-4.923077-2.461538-2.461538 0-2.461538-2.461538-2.461538-2.461539s0-2.461538 2.461538-2.461538c2.461538-2.461538 221.538462-113.230769 445.538462-113.230769 78.769231 2.461538 157.538462-19.692308 224-64 41.846154-29.538462 93.538462-46.769231 145.230769-46.769231 76.307692 2.461538 150.153846 14.769231 224 34.461538 41.846154 12.307692 83.692308 19.692308 125.538462 22.153846 2.461538 0 7.384615 2.461538 7.384615 4.923077s-2.461538 4.923077-7.384615 4.923077c-44.307692-2.461538-88.615385-9.846154-130.461539-22.153846-71.384615-19.692308-145.230769-29.538462-219.076923-34.461538-49.230769 0-96 14.769231-135.384615 44.307692-68.923077 46.769231-150.153846 68.923077-233.846154 66.461538-219.076923 0-435.692308 110.769231-440.615385 110.769231 2.461538 0 2.461538 0 0 0z" fill="#F5BB1C" p-id="1868"></path><path d="M91.987692 907.790769c-2.461538 0-4.923077 0-4.923077-2.461538-2.461538-2.461538 0-4.923077 2.461539-4.923077 145.230769-41.846154 295.384615-66.461538 445.538461-68.923077 78.769231 2.461538 155.076923-9.846154 226.461539-39.384615 44.307692-19.692308 93.538462-29.538462 142.769231-27.076924 76.307692 2.461538 150.153846 9.846154 224 19.692308 41.846154 7.384615 83.692308 9.846154 125.538461 12.307692 2.461538 0 7.384615 2.461538 7.384616 4.923077s-2.461538 4.923077-7.384616 4.923077c-41.846154-2.461538-86.153846-4.923077-128-12.307692-73.846154-12.307692-147.692308-19.692308-221.538461-19.692308-46.769231-2.461538-93.538462 7.384615-135.384616 27.076923-73.846154 29.538462-155.076923 44.307692-233.846154 41.846154-147.692308 2.461538-295.384615 27.076923-438.153846 66.461539-2.461538-2.461538-4.923077-2.461538-4.923077-2.461539z" fill="#DD6542" p-id="1869"></path><path d="M91.987692 907.790769c-2.461538 0-4.923077-2.461538-4.923077-2.461538s0-4.923077 4.923077-4.923077c147.692308-19.692308 295.384615-32 443.076923-32 76.307692 0 152.615385-4.923077 228.923077-17.230769 46.769231-9.846154 93.538462-12.307692 140.307693-12.307693 81.230769 0 157.538462 4.923077 224 9.846154 49.230769 4.923077 93.538462 7.384615 125.538461 7.384616 2.461538 0 7.384615 2.461538 7.384616 4.923076s-2.461538 4.923077-7.384616 4.923077c-34.461538 0-78.769231-2.461538-128-7.384615-66.461538-4.923077-142.769231-9.846154-221.538461-9.846154-46.769231 0-93.538462 2.461538-137.846154 12.307692-76.307692 14.769231-155.076923 19.692308-231.384616 19.692308-147.692308-2.461538-297.846154 7.384615-443.076923 27.076923z" fill="#2DABE6" p-id="1870"></path><path d="M89.526154 1023.483077c-2.461538 0-7.384615-2.461538-7.384616-4.923077v-541.538462c0-2.461538 2.461538-4.923077 7.384616-4.923076s7.384615 2.461538 7.384615 4.923076v541.538462c-2.461538 2.461538-4.923077 4.923077-7.384615 4.923077z" fill="#2DABE6" p-id="1871"></path><path d="M1433.526154 957.021538H8.295385c-2.461538 0-7.384615-2.461538-7.384616-4.923076s2.461538-4.923077 7.384616-4.923077h1425.230769c2.461538 0 7.384615 2.461538 7.384615 4.923077s-2.461538 4.923077-7.384615 4.923076z" fill="#2DABE6" p-id="1872"></path><path d="M687.753846 52.824615v174.769231c0 2.461538 0 7.384615 2.461539 9.846154l115.692307 120.615385c-73.846154 59.076923-182.153846 46.769231-241.230769-27.076923s-46.769231-182.153846 27.076923-241.23077c29.538462-22.153846 61.538462-34.461538 96-36.923077z" fill="#DD6542" p-id="1873"></path><path d="M727.138462 237.44h145.230769c-2.461538 39.384615-19.692308 73.846154-44.307693 103.384615l-100.923076-103.384615z" fill="#3AB481" p-id="1874"></path><path d="M714.830769 210.363077v-157.538462c83.692308 7.384615 150.153846 73.846154 157.538462 157.538462h-157.538462v-157.538462 157.538462z" fill="#2DABE6" p-id="1875"></path><path d="M805.587692 123.076923s-2.461538 0 0 0c-2.461538-2.461538-4.923077-4.923077-2.461538-4.923077l41.846154-76.307692h135.384615c2.461538 0 4.923077 2.461538 4.923077 2.461538s-2.461538 2.461538-4.923077 2.461539h-130.461538l-39.384616 71.384615c-2.461538 4.923077-4.923077 4.923077-4.923077 4.923077z" fill="#2DABE6" p-id="1876"></path><path d="M977.895385 320h-118.153847l-36.923076-54.153846v-4.923077h4.923076l36.923077 51.692308h113.23077c2.461538 0 4.923077 2.461538 4.923077 2.461538s-2.461538 4.923077-4.923077 4.923077z" fill="#3AB481" p-id="1877"></path><path d="M483.126154 322.461538h-88.615385c-2.461538 0-2.461538-2.461538-2.461538-2.461538l2.461538-2.461538h86.153846l118.153847-91.076924c2.461538-2.461538 4.923077 0 4.923076 0 2.461538 2.461538 0 4.923077 0 4.923077l-120.615384 91.076923z" fill="#DD6542" p-id="1878"></path><path d="M298.510769 320h-2.461538c-2.461538 0-2.461538 0-4.923077 2.461538s-2.461538 4.923077-2.461539 7.384616v12.307692h-4.923077v-24.615384h4.923077v4.923076c0-2.461538 2.461538-2.461538 2.461539-4.923076 0 0 2.461538-2.461538 4.923077-2.461539h2.461538v4.923077zM323.126154 329.846154h-17.230769c0 2.461538 0 4.923077 2.461538 7.384615s2.461538 2.461538 4.923077 2.461539 4.923077 0 7.384615-2.461539v4.923077c-2.461538 2.461538-4.923077 2.461538-7.384615 2.461539-2.461538 0-7.384615 0-7.384615-2.461539-2.461538-2.461538-2.461538-4.923077-2.461539-9.846154s0-7.384615 2.461539-9.846154c2.461538-2.461538 4.923077-2.461538 7.384615-2.461538s4.923077 0 7.384615 2.461538 2.461538 2.461538 2.461539 7.384616z m-2.461539-2.461539c0-2.461538 0-4.923077-2.461538-4.923077s-2.461538-2.461538-4.923077-2.461538-2.461538 0-4.923077 2.461538-2.461538 2.461538-2.461538 4.923077h14.76923zM350.203077 339.692308h-4.923077v-4.923077c-2.461538 2.461538-4.923077 4.923077-7.384615 4.923077-2.461538 0-4.923077 0-7.384616-2.461539-2.461538-2.461538-2.461538-4.923077-2.461538-9.846154s0-7.384615 2.461538-9.846153 4.923077-2.461538 7.384616-2.461539c2.461538 0 4.923077 2.461538 7.384615 4.923077v-14.769231h4.923077v34.461539z m-2.461539-9.846154v-2.461539c0-2.461538 0-2.461538-2.461538-4.923077s-2.461538-2.461538-4.923077-2.461538-4.923077 0-4.923077 2.461538-2.461538 4.923077-2.461538 7.384616c0 2.461538 0 4.923077 2.461538 7.384615 2.461538 2.461538 2.461538 2.461538 4.923077 2.461539s4.923077 0 4.923077-2.461539 2.461538-4.923077 2.461538-7.384615z" fill="#DD6542" p-id="1879"></path><path d="M1007.433846 46.769231V49.230769h-4.923077V12.307692h4.923077v17.23077c2.461538-2.461538 4.923077-4.923077 7.384616-4.923077 2.461538 0 4.923077 0 7.384615 2.461538 2.461538 2.461538 2.461538 4.923077 2.461538 9.846154s0 7.384615-2.461538 9.846154c-2.461538 2.461538-4.923077 4.923077-7.384615 4.923077-2.461538-2.461538-4.923077-2.461538-7.384616-4.923077z m0-9.846154v2.461538c0 2.461538 0 4.923077 2.461539 4.923077 2.461538 2.461538 2.461538 2.461538 4.923077 2.461539s4.923077 0 4.923076-2.461539c2.461538-2.461538 2.461538-4.923077 2.461539-7.384615 0-2.461538 0-4.923077-2.461539-7.384615s-2.461538-2.461538-4.923076-2.461539-4.923077 0-4.923077 2.461539c-2.461538 2.461538-2.461538 4.923077-2.461539 7.384615zM1036.972308 49.230769h-4.923077V12.307692h4.923077V49.230769zM1064.049231 49.230769h-4.923077v-4.923077c-2.461538 2.461538-4.923077 4.923077-7.384616 4.923077-4.923077 0-9.846154-2.461538-9.846153-9.846154V24.615385h4.923077v14.76923c0 4.923077 2.461538 7.384615 4.923076 7.384616s2.461538 0 4.923077-2.461539 2.461538-2.461538 2.461539-4.923077V24.615385h4.923077v24.615384zM1091.126154 36.923077h-17.230769c0 2.461538 0 4.923077 2.461538 7.384615s2.461538 2.461538 4.923077 2.461539 4.923077 0 7.384615-2.461539V49.230769c-2.461538 2.461538-4.923077 2.461538-7.384615 2.461539-2.461538 0-7.384615 0-7.384615-2.461539-2.461538-2.461538-2.461538-4.923077-2.461539-9.846154s0-7.384615 2.461539-9.846153c2.461538-2.461538 4.923077-2.461538 7.384615-2.461539s4.923077 0 7.384615 2.461539 2.461538 2.461538 2.461539 7.384615z m-2.461539-2.461539c0-2.461538 0-4.923077-2.461538-4.923076 0-2.461538-2.461538-2.461538-4.923077-2.461539s-2.461538 0-4.923077 2.461539-2.461538 2.461538-2.461538 4.923076h14.76923z" fill="#2DABE6" p-id="1880"></path><path d="M1022.203077 307.692308c0 9.846154-4.923077 14.769231-12.307692 14.76923-2.461538 0-4.923077 0-7.384616-2.461538v-4.923077c2.461538 2.461538 4.923077 2.461538 7.384616 2.461539 4.923077 0 9.846154-2.461538 9.846153-9.846154v-2.461539c-2.461538 2.461538-4.923077 4.923077-7.384615 4.923077-2.461538 0-4.923077 0-7.384615-2.461538-2.461538-2.461538-2.461538-4.923077-2.461539-9.846154s0-7.384615 2.461539-9.846154c2.461538-2.461538 4.923077-4.923077 7.384615-4.923077 2.461538 0 4.923077 2.461538 7.384615 4.923077v-2.461538h4.923077v22.153846z m-4.923077-7.384616v-2.461538c0-2.461538 0-2.461538-2.461538-4.923077s-2.461538-2.461538-4.923077-2.461539-4.923077 0-4.923077 2.461539c-2.461538 2.461538-2.461538 4.923077-2.461539 7.384615 0 2.461538 0 4.923077 2.461539 7.384616 2.461538 2.461538 2.461538 2.461538 4.923077 2.461538s4.923077 0 4.923077-2.461538c2.461538-4.923077 2.461538-4.923077 2.461538-7.384616zM1044.356923 290.461538h-2.461538c-2.461538 0-2.461538 0-4.923077 2.461539s-2.461538 4.923077-2.461539 7.384615v12.307693h-4.923077v-24.615385h4.923077v4.923077c0-2.461538 2.461538-2.461538 2.461539-4.923077 0 0 2.461538-2.461538 4.923077-2.461538h2.461538v4.923076zM1066.510769 297.846154h-17.230769c0 2.461538 0 4.923077 2.461538 7.384615 2.461538 2.461538 2.461538 2.461538 4.923077 2.461539s4.923077 0 7.384616-2.461539v4.923077c-2.461538 2.461538-4.923077 2.461538-7.384616 2.461539-2.461538 0-7.384615 0-7.384615-2.461539-2.461538-2.461538-2.461538-4.923077-2.461538-9.846154s0-7.384615 2.461538-9.846154c2.461538-2.461538 4.923077-2.461538 7.384615-2.461538s4.923077 0 7.384616 2.461538c2.461538 0 2.461538 2.461538 2.461538 7.384616z m-2.461538-2.461539c0-2.461538 0-4.923077-2.461539-4.923077s-2.461538-2.461538-4.923077-2.461538-2.461538 0-4.923077 2.461538-2.461538 2.461538-2.461538 4.923077h14.769231zM1093.587692 297.846154h-17.230769c0 2.461538 0 4.923077 2.461539 7.384615 2.461538 2.461538 2.461538 2.461538 4.923076 2.461539s4.923077 0 7.384616-2.461539v4.923077c-2.461538 2.461538-4.923077 2.461538-7.384616 2.461539-2.461538 0-7.384615 0-7.384615-2.461539-2.461538-2.461538-2.461538-4.923077-2.461538-9.846154s0-7.384615 2.461538-9.846154c2.461538-2.461538 4.923077-2.461538 7.384615-2.461538s4.923077 0 7.384616 2.461538c0 0 2.461538 2.461538 2.461538 7.384616z m-4.923077-2.461539c0-2.461538 0-4.923077-2.461538-4.923077s-2.461538-2.461538-4.923077-2.461538-2.461538 0-4.923077 2.461538-2.461538 2.461538-2.461538 4.923077h14.76923zM1118.203077 310.153846h-4.923077V295.384615c0-4.923077-2.461538-7.384615-4.923077-7.384615s-2.461538 0-4.923077 2.461538-2.461538 2.461538-2.461538 4.923077v14.769231h-4.923077v-24.615384h4.923077v4.923076c2.461538-2.461538 4.923077-4.923077 7.384615-4.923076 2.461538 0 4.923077 0 7.384615 2.461538 2.461538 2.461538 2.461538 4.923077 2.461539 7.384615v14.769231z" fill="#3AB481" p-id="1881"></path></svg>
